# AST/ASF file generated using VICON BodyLanguage
# -----------------------------------------------
:version 1.10
:name VICON
:units
  mass 1.0
  length 0.45
  angle deg
:documentation
   .ast/.asf automatically generated from VICON data using
   VICON BodyBuilder and BodyLanguage model FoxedUp or BRILLIANT.MOD
:root
   order TX TY TZ RX RY RZ
   axis XYZ
   position 0 0 0  
   orientation 0 0 0 
:bonedata
  begin
     id 1 
     name lhipjoint
     direction 0.678564 -0.644259 0.352817 
     length 2.99514 
     axis 0 0 0  XYZ
  end
  begin
     id 2 
     name lfemur
     direction 0.34202 -0.939693 0  
     length 7.29983  
     axis 0 0 20  XYZ
    dof rx ry rz
    limits (-160.0 20.0)
           (-70.0 70.0)
           (-60.0 70.0)
  end
  begin
     id 3 
     name ltibia
     direction 0.34202 -0.939693 0   
     length 8.59502   
     axis 0 0 20   XYZ
    dof rx
    limits (-10.0 170.0)
  end
  begin
     id 4 
     name lfoot
     direction 0.256607 -0.705022 0.661133   
     length 2.92136   
     axis -90 7.62852e-016 20   XYZ
    dof rx rz
    limits (-45.0 90.0)
           (-70.0 20.0)
  end
  begin
     id 5 
     name ltoes
     direction 1.53673e-011 -4.22167e-011 1   
     length 1.31421   
     axis -90 7.62852e-016 20   XYZ
    dof rx
    limits (-90.0 20.0)
  end
  begin
     id 6 
     name rhipjoint
     direction -0.664671 -0.655307 0.358867   
     length 2.94464  
     axis 0 0 0  XYZ 
  end
  begin
     id 7 
     name rfemur
     direction -0.34202 -0.939693 0   
     length 7.1902   
     axis 0 0 -20   XYZ
    dof rx ry rz
    limits (-160.0 20.0)
           (-70.0 70.0)
           (-70.0 60.0)
  end
  begin
     id 8 
     name rtibia
     direction -0.342306 -0.939589 0   
     length 7.92304   
     axis 0 0 -20   XYZ
    dof rx
    limits (-10.0 170.0)
 end
 begin
     id 9 
     name rfoot
     direction -0.135083 -0.371136 0.9187   
     length 2.14777  
     axis -90 -7.62852e-016 -20   XYZ
    dof rx rz
    limits (-45.0 90.0)
           (-20.0 70.0)
  end
  begin
     id 10 
     name rtoes
     direction -1.53535e-011 -4.21537e-011 1   
     length 1.05997   
     axis -90 -7.62852e-016 -20   XYZ
    dof rx
    limits (-90.0 20.0)
  end
  begin
     id 11 
     name lowerback
     direction -0.0195507 0.995133 0.0965771   
     length 2.09792   
     axis 0 0 0   XYZ
    dof rx ry rz
    limits (-20.0 45.0)
           (-30.0 30.0)
           (-30.0 30.0)
  end
  begin
     id 12 
     name upperback
     direction 0.00551419 0.999637 0.0263729   
     length 2.10514   
     axis 0 0 0   XYZ
    dof rx ry rz
    limits (-20.0 45.0)
           (-30.0 30.0)
           (-30.0 30.0)
  end
  begin
     id 13 
     name thorax
     direction 0.0138853 0.999728 -0.0187549   
     length 2.12411   
     axis 0 0 0   XYZ
    dof rx ry rz
    limits (-20.0 45.0)
           (-30.0 30.0)
           (-30.0 30.0)
  end
  begin
     id 14 
     name lowerneck
     direction 0.00575564 0.995441 0.0952053   
     length 2.98955   
     axis 0 0 0   XYZ
    dof rx ry rz
    limits (-20.0 45.0)
           (-30.0 30.0)
           (-30.0 30.0)
  end
  begin
     id 15 
     name upperneck
     direction 0.0362743 0.998452 -0.0421753   
     length 3.03688   
     axis 0 0 0   XYZ
    dof rx ry rz
    limits (-20.0 45.0)
           (-30.0 30.0)
           (-30.0 30.0)
  end
  begin
     id 16
     name head
     direction -0.0138164 0.799054 0.6011  
     length 1.47017  
     axis 0 0 0   XYZ
    dof rx ry rz
    limits (-20.0 45.0)
           (-30.0 30.0)
           (-30.0 30.0)
  end
  begin
     id 17 
     name lclavicle
     direction 0.925636 0.378361 -0.006363  
     length 3.33831  
     axis 0 0 0   XYZ
    dof ry rz
    limits (-20.0 10.0)
           (0.0 20.0)
  end
  begin
     id 18 
     name lhumerus
     direction 1 -4.48983e-011 -5.50319e-028   
     length 4.79344   
     axis -180 -30 -90   XYZ
    dof rx ry rz
    limits (-60.0 90.0)
           (-90.0 90.0)
           (-90.0 90.0)
  end
  begin
     id 19
     name lradius
     direction 1 -4.48905e-011 9.20478e-027   
     length 2.94221   
     axis -180 -30 -90   XYZ
    dof rx
    limits (-10.0 170.0)
  end
  begin
     id 20
     name lwrist
     direction 1 -4.4898e-011 2.08228e-026   
     length 1.4711   
     axis -1.38353e-014 90 90   XYZ
    dof ry
    limits (-180.0 0.0)
 end
  begin
     id 21 
     name lhand
     direction 1 -4.48957e-011 4.16456e-026   
     length 0.889984   
     axis -2.65735e-014 90 90   XYZ
    dof rx rz
    limits (-90.0 90.0)
           (-45.0 45.0)
  end
  begin
     id 22 
     name lfingers
     direction 1 -4.49044e-011 8.32913e-026   
     length 0.717528   
     axis -5.3147e-014 90 90   XYZ
    dof rx
    limits (0.0 90.0)
  end
  begin
     id 23
     name lthumb
     direction 0.707107 -6.35171e-011 0.707107   
     length 1.03023   
     axis -90 45 2.85299e-015   XYZ
    dof rx rz
    limits (-45.0 45.0)
           (-45.0 45.0)
  end
  begin
     id 24 
     name rclavicle
     direction -0.892514 0.445149 0.0725343   
     length 3.17271  
     axis 0 0 0   XYZ 
    dof ry rz
    limits (-10.0 20.0)
           (-20.0 0.0)
  end
  begin
     id 25 
     name rhumerus
     direction -1 -4.48952e-011 5.59695e-028  
     length 5.4863   
     axis -180 30 90   XYZ
    dof rx ry rz
    limits (-90.0 60.0)
           (-90.0 90.0)
           (-90.0 90.0)
  end
  begin
     id 26 
     name rradius
     direction -1 -4.48963e-011 1.14146e-026   
     length 3.17201   
     axis -180 30 90   XYZ
    dof rx
    limits (-10.0 170.0)
  end
  begin
     id 27 
     name rwrist
     direction -1 -4.49046e-011 2.08228e-026   
     length 1.58601   
     axis -1.38353e-014 -90 -90   XYZ
    dof ry
    limits (-180.0 0.0)
  end
  begin
     id 28
     name rhand
     direction -1 -4.48815e-011 4.16456e-026   
     length 0.874513   
     axis -2.65735e-014 -90 -90   XYZ
    dof rx rz
    limits (-90.0 90.0)
           (-45.0 45.0)
  end
  begin
     id 29
     name rfingers
     direction -1 -4.48918e-011 8.32913e-026   
     length 0.705055   
     axis -5.3147e-014 -90 -90   XYZ
    dof rx
    limits (0.0 90.0)
  end
  begin
     id 30
     name rthumb
     direction -0.707107 -6.34858e-011 0.707107   
     length 1.01232   
     axis -90 -45 -2.85299e-015   XYZ
    dof rx rz
    limits (-45.0 45.0)
           (-45.0 45.0)
  end
:hierarchy
  begin
    root lhipjoint rhipjoint lowerback
    lhipjoint lfemur
    lfemur ltibia
    ltibia lfoot
    lfoot ltoes
    rhipjoint rfemur
    rfemur rtibia
    rtibia rfoot
    rfoot rtoes
    lowerback upperback
    upperback thorax
    thorax lowerneck lclavicle rclavicle
    lowerneck upperneck
    upperneck head
    lclavicle lhumerus
    lhumerus lradius
    lradius lwrist
    lwrist lhand lthumb
    lhand lfingers
    rclavicle rhumerus
    rhumerus rradius
    rradius rwrist
    rwrist rhand rthumb
    rhand rfingers
  end

#!OML:ASF F:\VICON\USERDATA\INSTALL\rory3\rory3.ASF
:FULLY-SPECIFIED
:DEGREES
648
root 3.43462 18.4903 -0.678273 -4.51877 88.2286 -17.9634
lowerback -12.9147 -1.16236 -1.03128
upperback -5.57858 -1.22238 2.38763
thorax 1.46199 -0.461082 2.90148
lowerneck -17.8871 -10.4394 2.65898
upperneck 5.02342 42.5154 3.41578
head 29.2335 38.3212 180.506
rclavicle 9.93923e-017 -5.56597e-015
rhumerus -13.6691 35.9932 -62.3944
rradius 122.175
rwrist -7.8497
rhand -22.527 -4.80241
rfingers 7.12502
rthumb 3.89991 -34.7465
lclavicle 9.93923e-017 -5.56597e-015
lhumerus -17.3883 -40.1996 72.3382
lradius 116.388
lwrist 16.1764
lhand -17.7315 -4.40849
lfingers 7.12502
lthumb 8.52948 25.3992
rfemur -12.0425 17.4428 18.2209
rtibia 11.5693
rfoot -18.0123 -18.3429
rtoes -14.0223
lfemur -12.7829 -3.84744 -21.9781
ltibia 15.8973
lfoot -3.04648 4.47369
ltoes -10.0436
649
root 3.43498 18.4913 -0.678685 -2.40892 88.2048 -15.8548
lowerback -12.8874 -1.17245 -1.06031
upperback -5.6655 -1.22615 2.35108
thorax 1.35644 -0.459415 2.87997
lowerneck -17.6851 -10.4922 2.68955
upperneck 5.06592 42.399 3.43724
head 29.1616 38.1205 180.491
rclavicle -1.24737e-014 1.90833e-014
rhumerus -12.6085 35.8247 -61.6968
rradius 122.663
rwrist -7.62432
rhand -22.7583 -4.71489
rfingers 7.12502
rthumb 3.6765 -34.6629
lclavicle -1.24737e-014 1.90833e-014
lhumerus -16.5399 -39.7554 71.5575
lradius 117.061
lwrist 16.1367
lhand -17.8243 -5.05274
lfingers 7.12502
lthumb 8.43987 24.7586
rfemur -12.025 17.6429 18.13
rtibia 11.5414
rfoot -18.0258 -18.5017
rtoes -13.9742
lfemur -12.7906 -3.79043 -22.0553
ltibia 15.9022
lfoot -3.07935 4.48157
ltoes -9.98097
650
root 3.43615 18.4922 -0.679742 -3.37658 88.1799 -16.8298
lowerback -12.8335 -1.18287 -0.998252
upperback -5.77156 -1.23999 2.34355
thorax 1.21591 -0.462712 2.83626
lowerneck -17.4667 -10.5277 2.71394
upperneck 5.13047 42.3247 3.4801
head 29.0864 37.9389 180.432
rclavicle 8.00108e-015 4.77083e-015
rhumerus -11.7505 35.6405 -61.1181
rradius 123.184
rwrist -7.42936
rhand -22.9953 -4.60919
rfingers 7.12502
rthumb 3.44766 -34.5611
lclavicle 8.00108e-015 4.77083e-015
lhumerus -15.6561 -39.4207 70.8072
lradius 117.679
lwrist 16.1272
lhand -17.8504 -5.35543
lfingers 7.12502
lthumb 8.41473 24.4569
rfemur -12.0294 17.6154 18.1638
rtibia 11.5372
rfoot -18.0688 -18.4521
rtoes -14.1395
lfemur -12.8012 -3.77174 -22.0238
ltibia 15.9054
lfoot -3.06822 4.48409
ltoes -9.9069
651
root 3.43531 18.4913 -0.678773 -5.36308 88.1478 -18.8121
lowerback -12.7663 -1.15148 -0.915182
upperback -5.87577 -1.2007 2.34314
thorax 1.06685 -0.439681 2.79558
lowerneck -17.2538 -10.5854 2.69092
upperneck 5.21935 42.339 3.53306
head 29.0808 37.9264 180.414
rclavicle 1.19271e-015 -2.5842e-014
rhumerus -11.128 35.3046 -60.5875
rradius 123.705
rwrist -7.34099
rhand -23.2407 -4.41646
rfingers 7.12502
rthumb 3.21068 -34.372
lclavicle 1.19271e-015 -2.5842e-014
lhumerus -14.8004 -39.1472 70.0911
lradius 118.377
lwrist 16.138
lhand -17.7086 -5.48196
lfingers 7.12502
lthumb 8.55154 24.3249
rfemur -12.0617 17.5367 18.249
rtibia 11.5749
rfoot -18.1002 -18.3326
rtoes -14.4511
lfemur -12.7945 -3.77602 -21.9447
ltibia 15.888
lfoot -3.04928 4.42775
ltoes -9.88211
652
root 3.43403 18.4903 -0.677977 -3.35144 88.1125 -16.8144
lowerback -12.698 -1.12629 -0.950743
upperback -5.98691 -1.15564 2.31447
thorax 0.911452 -0.412216 2.79322
lowerneck -17.0417 -10.6754 2.67635
upperneck 5.2566 42.2156 3.53104
head 29.0258 37.7431 180.443
rclavicle -3.08116e-015 -1.19271e-014
rhumerus -10.5081 34.9558 -60.0481
rradius 124.176
rwrist -7.34728
rhand -23.5331 -3.94854
rfingers 7.12502
rthumb 2.92823 -33.9082
lclavicle -3.08116e-015 -1.19271e-014
lhumerus -13.9042 -38.7651 69.2516
lradius 119.106
lwrist 16.1465
lhand -16.9286 -5.84237
lfingers 7.12502
lthumb 9.30422 23.9323
rfemur -12.103 17.5095 18.185
rtibia 11.5721
rfoot -18.0167 -18.2962
rtoes -14.4248
lfemur -12.828 -3.80049 -21.9973
ltibia 15.9139
lfoot -2.98018 4.44201
ltoes -9.86115
653
root 3.43473 18.4891 -0.677901 -1.88603 88.077 -15.3482
lowerback -12.7212 -1.11345 -0.993364
upperback -6.00577 -1.13219 2.30776
thorax 0.903518 -0.399019 2.81341
lowerneck -16.9413 -10.737 2.66786
upperneck 5.23467 42.0445 3.49041
head 28.9471 37.5163 180.468
rclavicle -1.05853e-014 2.5842e-014
rhumerus -9.70444 34.6504 -59.3633
rradius 124.596
rwrist -7.23648
rhand -23.8224 -3.49457
rfingers 7.12502
rthumb 2.64893 -33.4579
lclavicle -1.05853e-014 2.5842e-014
lhumerus -12.8919 -38.2946 68.4302
lradius 119.784
lwrist 16.2291
lhand -16.0537 -6.11395
lfingers 7.12502
lthumb 10.1483 23.6213
rfemur -12.1036 17.4996 18.1465
rtibia 11.5671
rfoot -17.9601 -18.2914
rtoes -14.3048
lfemur -12.8281 -3.78712 -22.0397
ltibia 15.942
lfoot -2.90776 4.4581
ltoes -9.80739
654
root 3.43666 18.4902 -0.678492 -3.3009 88.0499 -16.7479
lowerback -12.7813 -1.11705 -0.958171
upperback -6.00249 -1.14065 2.34246
thorax 0.939671 -0.403313 2.8281
lowerneck -16.8367 -10.7753 2.66924
upperneck 5.22372 41.9002 3.4627
head 28.8593 37.271 180.456
rclavicle 8.59744e-015 -8.74653e-015
rhumerus -8.88788 34.5505 -58.626
rradius 125.023
rwrist -6.88958
rhand -24.1734 -3.62414
rfingers 7.12502
rthumb 2.30987 -33.5914
lclavicle 8.59744e-015 -8.74653e-015
lhumerus -11.9737 -37.8069 67.8015
lradius 120.38
lwrist 16.3303
lhand -16.3645 -6.18522
lfingers 7.12502
lthumb 9.84848 23.5645
rfemur -12.0782 17.5371 18.2002
rtibia 11.5489
rfoot -17.9952 -18.2636
rtoes -14.4229
lfemur -12.7993 -3.77218 -21.9839
ltibia 15.9475
lfoot -2.91903 4.45878
ltoes -9.83138
655
root 3.43775 18.4909 -0.67873 -3.45475 88.0127 -16.906
lowerback -12.793 -1.11418 -0.94512
upperback -6.06176 -1.1337 2.34011
thorax 0.883283 -0.397454 2.81949
lowerneck -16.6624 -10.8205 2.70608
upperneck 5.28417 41.8782 3.49535
head 28.8379 37.131 180.452
rclavicle 4.32357e-015 1.07344e-014
rhumerus -8.22176 34.4212 -58.1177
rradius 125.424
rwrist -6.49318
rhand -24.6862 -3.88237
rfingers 7.12502
rthumb 1.81467 -33.8544
lclavicle 4.32357e-015 1.07344e-014
lhumerus -11.2166 -37.3808 67.2115
lradius 121
lwrist 16.2898
lhand -17.5269 -6.11223
lfingers 7.12502
lthumb 8.72695 23.6874
rfemur -12.0527 17.633 18.1966
rtibia 11.4737
rfoot -17.9648 -18.2908
rtoes -14.6344
lfemur -12.8203 -3.75092 -21.975
ltibia 15.9794
lfoot -2.90033 4.51313
ltoes -9.97662
656
root 3.4399 18.4901 -0.678517 -3.86337 87.9801 -17.2974
lowerback -12.7833 -1.10527 -0.915951
upperback -6.11585 -1.12115 2.3389
thorax 0.820143 -0.389286 2.80384
lowerneck -16.4932 -10.8661 2.71316
upperneck 5.33957 41.8571 3.51989
head 28.8189 37.0293 180.456
rclavicle -7.55382e-015 2.3059e-014
rhumerus -7.58761 34.1595 -57.6387
rradius 125.812
rwrist -6.30723
rhand -25.1162 -3.81426
rfingers 7.12502
rthumb 1.39935 -33.7894
lclavicle -7.55382e-015 2.3059e-014
lhumerus -10.4074 -36.9273 66.5752
lradius 121.589
lwrist 16.2358
lhand -18.02 -6.09916
lfingers 7.12502
lthumb 8.25098 23.7197
rfemur -11.9881 17.6201 18.2331
rtibia 11.4169
rfoot -17.9691 -18.247
rtoes -14.1362
lfemur -12.8068 -3.76285 -21.9522
ltibia 15.9992
lfoot -2.85669 4.50833
ltoes -9.98644
657
root 3.44319 18.4899 -0.677656 -4.22014 87.9389 -17.6518
lowerback -12.7808 -1.08835 -0.882766
upperback -6.16164 -1.09893 2.33883
thorax 0.76906 -0.376697 2.78829
lowerneck -16.3816 -10.9145 2.69626
upperneck 5.33968 41.7365 3.50097
head 28.7564 36.8717 180.463
rclavicle -3.926e-015 -1.59028e-015
rhumerus -6.90027 33.7995 -57.0578
rradius 126.233
rwrist -6.37344
rhand -25.3318 -3.5915
rfingers 7.12502
rthumb 1.1911 -33.5679
lclavicle -3.926e-015 -1.59028e-015
lhumerus -9.60324 -36.4613 65.9889
lradius 122.175
lwrist 16.1881
lhand -17.9993 -6.21036
lfingers 7.12502
lthumb 8.27104 23.6077
rfemur -11.9459 17.5857 18.275
rtibia 11.3817
rfoot -17.9591 -18.1924
rtoes -13.906
lfemur -12.7787 -3.76726 -21.9241
ltibia 15.9837
lfoot -2.81498 4.51291
ltoes -10.0337
658
root 3.44448 18.4898 -0.676729 -3.27394 87.9138 -16.7154
lowerback -12.7769 -1.07488 -0.907518
upperback -6.21462 -1.07416 2.31337
thorax 0.710075 -0.361943 2.77935
lowerneck -16.2729 -10.9686 2.71735
upperneck 5.35437 41.6351 3.50536
head 28.7158 36.7451 180.471
rclavicle 1.88845e-015 1.82882e-014
rhumerus -6.30733 33.4099 -56.5734
rradius 126.713
rwrist -6.54051
rhand -25.4193 -3.36284
rfingers 7.12502
rthumb 1.10656 -33.3397
lclavicle 1.88845e-015 1.82882e-014
lhumerus -8.8919 -36.0275 65.4423
lradius 122.778
lwrist 16.2929
lhand -17.8925 -6.5662
lfingers 7.12502
lthumb 8.37405 23.2478
rfemur -11.9238 17.7055 18.2306
rtibia 11.3091
rfoot -17.9172 -18.3013
rtoes -13.9149
lfemur -12.7686 -3.71475 -21.9555
ltibia 15.9635
lfoot -2.83081 4.52892
ltoes -9.93595
